<svg width="291" height="29" viewBox="0 0 291 29" fill="none" xmlns="http://www.w3.org/2000/svg">
<path d="M28.8867 1.69434L23.52 22H18.4507L15.0806 8.97266C14.9012 8.29297 14.7926 7.53304 14.7549 6.69287H14.6982C14.6133 7.618 14.4906 8.37793 14.3301 8.97266L10.875 22H5.59326L0.254883 1.69434H5.25342L8.11377 15.2173C8.23649 15.7931 8.32617 16.5672 8.38281 17.5396H8.46777C8.50553 16.8127 8.64242 16.0197 8.87842 15.1606L12.5601 1.69434H17.4595L20.7871 15.3306C20.9098 15.8309 21.0184 16.5578 21.1128 17.5112H21.1694C21.2072 16.7655 21.3063 16.0103 21.4668 15.2456L24.2705 1.69434H28.8867ZM43.2593 16.0244H33.8003C33.9513 18.1296 35.2777 19.1821 37.7793 19.1821C39.3747 19.1821 40.7765 18.8045 41.9849 18.0493V21.2778C40.6444 21.9953 38.9027 22.354 36.7598 22.354C34.4186 22.354 32.6014 21.7074 31.3081 20.4141C30.0148 19.1113 29.3682 17.2988 29.3682 14.9766C29.3682 12.5693 30.0667 10.6624 31.4639 9.25586C32.861 7.84928 34.5791 7.146 36.6182 7.146C38.7327 7.146 40.3659 7.77376 41.5176 9.0293C42.6787 10.2848 43.2593 11.9888 43.2593 14.1411V16.0244ZM39.1104 13.2773C39.1104 11.2005 38.2702 10.1621 36.5898 10.1621C35.8724 10.1621 35.2493 10.4595 34.7207 11.0542C34.2015 11.6489 33.8853 12.39 33.772 13.2773H39.1104ZM50.396 22H45.9214V0.533203H50.396V22ZM65.1509 21.4761C64.1408 22.0614 62.6823 22.354 60.7754 22.354C58.5475 22.354 56.7445 21.679 55.3662 20.3291C53.988 18.9792 53.2988 17.2375 53.2988 15.104C53.2988 12.6401 54.0352 10.7002 55.5078 9.28418C56.9899 7.85872 58.9676 7.146 61.4409 7.146C63.1496 7.146 64.3862 7.37256 65.1509 7.82568V11.6206C64.2163 10.922 63.1732 10.5728 62.0215 10.5728C60.7376 10.5728 59.7181 10.9504 58.9629 11.7056C58.2171 12.4513 57.8442 13.485 57.8442 14.8066C57.8442 16.0905 58.203 17.1006 58.9204 17.8369C59.6379 18.5638 60.6243 18.9272 61.8799 18.9272C62.9938 18.9272 64.0841 18.578 65.1509 17.8794V21.4761ZM75.0063 22.354C72.5897 22.354 70.6875 21.679 69.2998 20.3291C67.9215 18.9697 67.2324 17.1289 67.2324 14.8066C67.2324 12.4089 67.9499 10.535 69.3848 9.18506C70.8197 7.82568 72.7596 7.146 75.2046 7.146C77.6118 7.146 79.4998 7.82568 80.8687 9.18506C82.2375 10.535 82.9219 12.3239 82.9219 14.5518C82.9219 16.959 82.2139 18.8612 80.7979 20.2583C79.3913 21.6554 77.4608 22.354 75.0063 22.354ZM75.1196 10.5728C74.0623 10.5728 73.241 10.9362 72.6558 11.6631C72.0705 12.39 71.7778 13.4189 71.7778 14.75C71.7778 17.5348 72.9012 18.9272 75.1479 18.9272C77.2909 18.9272 78.3623 17.4971 78.3623 14.6367C78.3623 11.9274 77.2814 10.5728 75.1196 10.5728ZM108.849 22H104.389V13.7305C104.389 11.6253 103.615 10.5728 102.066 10.5728C101.33 10.5728 100.731 10.889 100.268 11.5215C99.8055 12.154 99.5742 12.9422 99.5742 13.8862V22H95.0996V13.6455C95.0996 11.597 94.3397 10.5728 92.8198 10.5728C92.0552 10.5728 91.4416 10.8748 90.979 11.479C90.5259 12.0832 90.2993 12.9045 90.2993 13.9429V22H85.8247V7.5H90.2993V9.76562H90.356C90.8185 8.99154 91.4652 8.36377 92.2959 7.88232C93.1361 7.39144 94.0518 7.146 95.043 7.146C97.0915 7.146 98.4933 8.04753 99.2485 9.85059C100.353 8.04753 101.977 7.146 104.12 7.146C107.273 7.146 108.849 9.09066 108.849 12.98V22ZM125.417 16.0244H115.958C116.109 18.1296 117.435 19.1821 119.937 19.1821C121.532 19.1821 122.934 18.8045 124.142 18.0493V21.2778C122.802 21.9953 121.06 22.354 118.917 22.354C116.576 22.354 114.759 21.7074 113.465 20.4141C112.172 19.1113 111.525 17.2988 111.525 14.9766C111.525 12.5693 112.224 10.6624 113.621 9.25586C115.018 7.84928 116.736 7.146 118.775 7.146C120.89 7.146 122.523 7.77376 123.675 9.0293C124.836 10.2848 125.417 11.9888 125.417 14.1411V16.0244ZM121.268 13.2773C121.268 11.2005 120.427 10.1621 118.747 10.1621C118.03 10.1621 117.407 10.4595 116.878 11.0542C116.359 11.6489 116.042 12.39 115.929 13.2773H121.268ZM144.858 21.8301C144.198 22.1794 143.202 22.354 141.871 22.354C138.718 22.354 137.141 20.7161 137.141 17.4404V10.7993H134.791V7.5H137.141V4.37061L141.602 3.09619V7.5H144.858V10.7993H141.602V16.6616C141.602 18.172 142.201 18.9272 143.4 18.9272C143.872 18.9272 144.358 18.7904 144.858 18.5166V21.8301ZM154.19 22.354C151.773 22.354 149.871 21.679 148.483 20.3291C147.105 18.9697 146.416 17.1289 146.416 14.8066C146.416 12.4089 147.133 10.535 148.568 9.18506C150.003 7.82568 151.943 7.146 154.388 7.146C156.795 7.146 158.683 7.82568 160.052 9.18506C161.421 10.535 162.105 12.3239 162.105 14.5518C162.105 16.959 161.397 18.8612 159.981 20.2583C158.575 21.6554 156.644 22.354 154.19 22.354ZM154.303 10.5728C153.246 10.5728 152.425 10.9362 151.839 11.6631C151.254 12.39 150.961 13.4189 150.961 14.75C150.961 17.5348 152.085 18.9272 154.332 18.9272C156.474 18.9272 157.546 17.4971 157.546 14.6367C157.546 11.9274 156.465 10.5728 154.303 10.5728ZM173.462 22V1.69434H180.854C183.119 1.69434 184.861 2.1097 186.079 2.94043C187.296 3.77116 187.905 4.94173 187.905 6.45215C187.905 7.5472 187.532 8.50537 186.787 9.32666C186.05 10.1479 185.106 10.7191 183.955 11.04V11.0967C185.399 11.276 186.551 11.8094 187.41 12.6968C188.278 13.5841 188.712 14.665 188.712 15.9395C188.712 17.7992 188.047 19.2765 186.716 20.3716C185.385 21.4572 183.568 22 181.264 22H173.462ZM178.036 5.06445V9.87891H180.046C180.99 9.87891 181.731 9.65234 182.27 9.19922C182.817 8.73665 183.091 8.10417 183.091 7.30176C183.091 5.81022 181.977 5.06445 179.749 5.06445H178.036ZM178.036 13.2773V18.6299H180.514C181.571 18.6299 182.397 18.3844 182.992 17.8936C183.596 17.4027 183.898 16.7324 183.898 15.8828C183.898 15.071 183.601 14.4338 183.006 13.9712C182.421 13.5086 181.599 13.2773 180.542 13.2773H178.036ZM205.436 7.5L199.545 23.1611C198.129 26.9277 195.995 28.811 193.145 28.811C192.059 28.811 191.167 28.6883 190.468 28.4429V24.8745C191.063 25.2238 191.71 25.3984 192.408 25.3984C193.56 25.3984 194.362 24.8556 194.815 23.77L195.58 21.9717L189.689 7.5H194.646L197.35 16.3218C197.52 16.8693 197.652 17.516 197.747 18.2617H197.803C197.888 17.7142 198.044 17.077 198.271 16.3501L201.003 7.5H205.436ZM221.932 5.41846H216.141V22H211.553V5.41846H205.79V1.69434H221.932V5.41846ZM231.504 11.5356C230.966 11.243 230.339 11.0967 229.621 11.0967C228.649 11.0967 227.889 11.4554 227.341 12.1729C226.794 12.8809 226.52 13.8485 226.52 15.0757V22H222.045V7.5H226.52V10.1904H226.577C227.285 8.22689 228.559 7.24512 230.4 7.24512C230.872 7.24512 231.24 7.30176 231.504 7.41504V11.5356ZM246.514 16.0244H237.055C237.206 18.1296 238.533 19.1821 241.034 19.1821C242.63 19.1821 244.031 18.8045 245.24 18.0493V21.2778C243.899 21.9953 242.158 22.354 240.015 22.354C237.674 22.354 235.856 21.7074 234.563 20.4141C233.27 19.1113 232.623 17.2988 232.623 14.9766C232.623 12.5693 233.322 10.6624 234.719 9.25586C236.116 7.84928 237.834 7.146 239.873 7.146C241.988 7.146 243.621 7.77376 244.772 9.0293C245.934 10.2848 246.514 11.9888 246.514 14.1411V16.0244ZM242.365 13.2773C242.365 11.2005 241.525 10.1621 239.845 10.1621C239.127 10.1621 238.504 10.4595 237.976 11.0542C237.456 11.6489 237.14 12.39 237.027 13.2773H242.365ZM263.181 22H258.72V13.9429C258.72 11.6961 257.918 10.5728 256.313 10.5728C255.539 10.5728 254.902 10.8701 254.401 11.4648C253.901 12.0596 253.651 12.8148 253.651 13.7305V22H249.176V7.5H253.651V9.79395H253.708C254.774 8.02865 256.327 7.146 258.366 7.146C261.576 7.146 263.181 9.13786 263.181 13.1216V22ZM280.923 22H276.449V20.0034H276.392C275.373 21.5705 273.876 22.354 271.903 22.354C270.091 22.354 268.632 21.7168 267.528 20.4424C266.423 19.1585 265.871 17.3696 265.871 15.0757C265.871 12.6779 266.48 10.7568 267.698 9.3125C268.916 7.86816 270.511 7.146 272.484 7.146C274.353 7.146 275.656 7.81624 276.392 9.15674H276.449V0.533203H280.923V22ZM276.534 14.9482V13.8579C276.534 12.9139 276.26 12.1304 275.712 11.5073C275.165 10.8843 274.452 10.5728 273.574 10.5728C272.583 10.5728 271.809 10.9645 271.252 11.748C270.695 12.5221 270.417 13.5889 270.417 14.9482C270.417 16.2227 270.686 17.2044 271.224 17.8936C271.762 18.5827 272.507 18.9272 273.461 18.9272C274.367 18.9272 275.104 18.5638 275.67 17.8369C276.246 17.11 276.534 16.1471 276.534 14.9482ZM289.887 1.69434L289.334 15.6846H285.709L285.186 1.69434H289.887ZM287.564 22.3257C286.809 22.3257 286.186 22.0991 285.695 21.646C285.204 21.1834 284.959 20.6265 284.959 19.9751C284.959 19.2954 285.204 18.7384 285.695 18.3042C286.196 17.87 286.819 17.6528 287.564 17.6528C288.32 17.6528 288.938 17.8747 289.419 18.3184C289.901 18.7526 290.142 19.3049 290.142 19.9751C290.142 20.6548 289.901 21.2165 289.419 21.6602C288.947 22.1038 288.329 22.3257 287.564 22.3257Z" fill="black" fill-opacity="0.85"/>
</svg>
